<svg width="298px" height="203px" viewBox="0 0 298 203" version="1.1" xmlns="http://www.w3.org/2000/svg" xmlns:xlink="http://www.w3.org/1999/xlink">
    <g id="Page-1" stroke="none" stroke-width="1" fill="none" fill-rule="evenodd">
        <g id="bell" fill="#576B8C">
            <g id="Group">
                <path d="M231.694,154.109 L213.861,154.109 L213.861,138.109 L240.194,138.109 C244.612,138.109 247.861,134.827 247.861,130.409 L247.861,127.636 C247.861,75.635 207.861,32.83 156.861,28.503 L156.861,18.109 C161.861,18.109 165.028,14.527 165.028,10.109 C165.028,5.691 161.613,2.109 157.195,2.109 L141.195,2.109 C136.777,2.109 133.028,5.691 133.028,10.109 C133.028,14.527 136.861,18.109 140.861,18.109 L140.861,28.417 C89.861,32.265 48.861,75.294 48.861,127.636 L48.861,130.409 C48.861,134.827 52.776,138.109 57.194,138.109 L81.861,138.109 L81.861,154.109 L66.694,154.109 C54.288,154.109 43.861,163.866 43.861,176.272 L43.861,193.772 C43.861,198.19 47.776,202.109 52.194,202.109 L246.194,202.109 C250.612,202.109 253.861,198.19 253.861,193.772 L253.861,176.272 C253.861,163.866 244.1,154.109 231.694,154.109 L231.694,154.109 Z M59.861,176.272 C59.861,172.688 63.11,170.109 66.694,170.109 L231.694,170.109 C235.278,170.109 237.861,172.688 237.861,176.272 L237.861,186.109 L59.861,186.109 L59.861,176.272 L59.861,176.272 Z M148.694,43.836 C192.98,43.836 229.324,79.109 232.032,122.109 L65.356,122.109 C68.064,79.109 104.408,43.836 148.694,43.836 L148.694,43.836 Z M197.861,138.109 L197.861,154.109 L97.861,154.109 L97.861,138.109 L197.861,138.109 L197.861,138.109 Z" id="Shape"></path>
                <path d="M90.358,105.249 C91.572,105.908 92.88,106.222 94.17,106.222 C97.008,106.222 99.757,104.707 101.206,102.039 C109.336,87.074 124.938,76.411 141.926,74.21 C146.308,73.643 149.4,69.63 148.831,65.248 C148.264,60.868 144.258,57.772 139.869,58.343 C117.884,61.192 97.682,75.009 87.147,94.401 C85.039,98.283 86.476,103.141 90.358,105.249 L90.358,105.249 Z" id="Shape"></path>
                <path d="M62.439,26.232 C64.021,28.118 66.288,29.089 68.571,29.089 C70.385,29.089 72.211,28.475 73.71,27.217 C77.095,24.377 77.536,19.331 74.695,15.947 L64.41,3.69 C61.57,0.305 56.524,-0.136 53.139,2.705 C49.754,5.545 49.313,10.591 52.154,13.976 L62.439,26.232 L62.439,26.232 Z" id="Shape"></path>
                <path d="M46.862,59.395 C49.071,55.569 47.759,50.675 43.933,48.466 L30.075,40.466 C26.249,38.258 21.356,39.568 19.146,43.395 C16.937,47.221 18.249,52.115 22.075,54.324 L35.933,62.324 C37.193,63.051 38.568,63.396 39.925,63.396 C42.69,63.396 45.379,61.962 46.862,59.395 L46.862,59.395 Z" id="Shape"></path>
                <path d="M26.148,89.547 L10.39,86.768 C6.047,86.007 1.889,88.906 1.122,93.258 C0.355,97.609 3.261,101.758 7.612,102.526 L23.37,105.304 C23.84,105.386 24.307,105.426 24.768,105.426 C28.577,105.426 31.953,102.696 32.637,98.814 C33.405,94.464 30.5,90.314 26.148,89.547 L26.148,89.547 Z" id="Shape"></path>
                <path d="M297.432,92.333 C296.664,87.981 292.52,85.089 288.164,85.843 L272.407,88.62 C268.055,89.388 265.15,93.536 265.917,97.888 C266.602,101.77 269.977,104.5 273.786,104.5 C274.247,104.5 274.715,104.46 275.184,104.378 L290.941,101.601 C295.294,100.833 298.199,96.684 297.432,92.333 L297.432,92.333 Z" id="Shape"></path>
                <path d="M279.122,42.698 C276.914,38.871 272.019,37.559 268.194,39.768 L254.337,47.767 C250.51,49.976 249.198,54.869 251.407,58.695 C252.888,61.262 255.578,62.697 258.343,62.697 C259.7,62.697 261.075,62.351 262.334,61.625 L276.191,53.626 C280.019,51.417 281.331,46.524 279.122,42.698 L279.122,42.698 Z" id="Shape"></path>
                <path d="M224.368,26.83 C225.867,28.088 227.691,28.702 229.507,28.702 C231.789,28.702 234.057,27.73 235.639,25.845 L245.925,13.589 C248.765,10.205 248.324,5.159 244.94,2.319 C241.555,-0.521 236.509,-0.081 233.669,3.304 L223.383,15.56 C220.543,18.943 220.983,23.989 224.368,26.83 L224.368,26.83 Z" id="Shape"></path>
            </g>
        </g>
    </g>
</svg>
